<?xml version="1.0" encoding="UTF-8"?>
<svg id="Layer_1" xmlns="http://www.w3.org/2000/svg" version="1.1" viewBox="0 0 256 256">
  <!-- Generator: Adobe Illustrator 29.5.1, SVG Export Plug-In . SVG Version: 2.1.0 Build 141)  -->
  <path d="M198.37,170.81v-85.62c7.19-3.28,12.2-10.52,12.2-18.95,0-11.49-9.32-20.82-20.82-20.82-8.42,0-15.67,5.01-18.95,12.2h-85.62c-3.28-7.19-10.52-12.2-18.95-12.2-11.49,0-20.82,9.32-20.82,20.82,0,8.42,5.01,15.67,12.2,18.95v85.62c-7.19,3.28-12.2,10.52-12.2,18.95,0,11.49,9.32,20.82,20.82,20.82,8.42,0,15.67-5.01,18.95-12.2h85.62c3.28,7.19,10.52,12.2,18.95,12.2,11.49,0,20.82-9.32,20.82-20.82,0-8.42-5.01-15.67-12.2-18.95h0ZM74.86,170.81v-85.62c4.57-2.08,8.25-5.76,10.33-10.33h85.62c2.08,4.57,5.76,8.25,10.33,10.33v85.62c-4.57,2.08-8.25,5.76-10.33,10.33h-85.62c-2.08-4.57-5.76-8.25-10.33-10.33Z"/>
</svg>