<?xml version="1.0" encoding="UTF-8"?>
<svg id="Layer_1" xmlns="http://www.w3.org/2000/svg" version="1.1" viewBox="0 0 256 256">
  <!-- Generator: Adobe Illustrator 29.5.1, SVG Export Plug-In . SVG Version: 2.1.0 Build 141)  -->
  <defs>
    <style>
      .st0 {
        fill: #fff;
      }
    </style>
  </defs>
  <path class="st0" d="M224.88,65c0-12.15-9.85-22-22-22-8.07,0-15.11,4.34-18.94,10.81l-85.4,4.9c-3.58-7.31-11.08-12.34-19.76-12.34-12.15,0-22,9.85-22,22,0,7.8,4.07,14.64,10.18,18.55l-19.51,78.29c-10.39,1.76-18.31,10.8-18.31,21.68,0,12.15,9.85,22,22,22s22-9.85,22-22c0-1.82-.23-3.59-.64-5.28l41.63-24.03c3.37,2.11,7.36,3.33,11.63,3.33,3.23,0,6.29-.7,9.06-1.95l19.9,23.96c-.94,2.46-1.47,5.11-1.47,7.9,0,12.15,9.85,22,22,22s22-9.85,22-22c0-7.22-3.48-13.63-8.85-17.64l18.71-86.6c10.13-1.97,17.78-10.89,17.78-21.59l.02.02h-.03ZM167.33,170.29l-20.59-24.79c.65-2.08,1.01-4.29,1.01-6.59,0-12.15-9.85-22-22-22s-22,9.85-22,22c0,1.34.13,2.65.36,3.93l-38.27,22.1,18.77-75.35c6.68-1.84,12.08-6.74,14.61-13.11l82.71-4.75c1.41,4.41,4.19,8.22,7.82,10.93l-18.7,86.57c-1.28.24-2.53.61-3.72,1.07h0Z"/>
</svg>