<?xml version="1.0" encoding="UTF-8"?>
<svg id="Layer_1" xmlns="http://www.w3.org/2000/svg" version="1.1" viewBox="0 0 256 256">
  <!-- Generator: Adobe Illustrator 29.5.1, SVG Export Plug-In . SVG Version: 2.1.0 Build 141)  -->
  <defs>
    <style>
      .st0 {
        fill: #00a8d8;
        stroke: #fff;
        stroke-miterlimit: 10;
        stroke-width: 12px;
      }
    </style>
  </defs>
  <path class="st0" d="M219.48,183.65v-111.3c9.35-4.26,15.86-13.68,15.86-24.63,0-14.94-12.12-27.06-27.06-27.06-10.95,0-20.37,6.51-24.63,15.86h-111.3c-4.26-9.35-13.68-15.86-24.63-15.86-14.94,0-27.06,12.12-27.06,27.06,0,10.95,6.51,20.37,15.86,24.63v111.3c-9.35,4.26-15.86,13.68-15.86,24.63,0,14.94,12.12,27.06,27.06,27.06,10.95,0,20.37-6.51,24.63-15.86h111.3c4.26,9.35,13.68,15.86,24.63,15.86,14.94,0,27.06-12.12,27.06-27.06,0-10.95-6.51-20.37-15.86-24.63ZM58.92,183.65v-111.3c5.94-2.71,10.73-7.49,13.43-13.43h111.3c2.71,5.94,7.49,10.73,13.43,13.43v111.3c-5.94,2.71-10.73,7.49-13.43,13.43h-111.3c-2.71-5.94-7.49-10.73-13.43-13.43Z"/>
</svg>