<?xml version="1.0" encoding="UTF-8"?>
<svg id="Layer_1" xmlns="http://www.w3.org/2000/svg" version="1.1" viewBox="0 0 256 256">
  <!-- Generator: Adobe Illustrator 29.5.1, SVG Export Plug-In . SVG Version: 2.1.0 Build 141)  -->
  <defs>
    <style>
      .st0 {
        fill: #00a8d8;
        stroke: #fff;
        stroke-miterlimit: 10;
        stroke-width: 12px;
      }
    </style>
  </defs>
  <path class="st0" d="M248.38,54.62c0-14.94-12.12-27.06-27.06-27.06-9.92,0-18.59,5.34-23.3,13.3l-105.04,6.03c-4.4-8.99-13.63-15.18-24.31-15.18-14.94,0-27.06,12.12-27.06,27.06,0,9.59,5,18.01,12.52,22.82l-24,96.29c-12.78,2.16-22.52,13.28-22.52,26.67,0,14.94,12.12,27.06,27.06,27.06s27.06-12.12,27.06-27.06c0-2.24-.28-4.42-.79-6.5l51.2-29.56c4.15,2.59,9.05,4.09,14.3,4.09,3.97,0,7.74-.86,11.14-2.4l24.48,29.47c-1.16,3.02-1.81,6.29-1.81,9.72,0,14.94,12.12,27.06,27.06,27.06s27.06-12.12,27.06-27.06c0-8.88-4.28-16.76-10.89-21.7l23.01-106.51c12.46-2.42,21.87-13.39,21.87-26.56ZM177.6,184.13l-25.32-30.49c.8-2.56,1.24-5.28,1.24-8.11,0-14.94-12.12-27.06-27.06-27.06s-27.06,12.12-27.06,27.06c0,1.65.16,3.26.44,4.83l-47.07,27.18,23.09-92.68c8.22-2.26,14.86-8.29,17.97-16.12l101.73-5.84c1.74,5.43,5.15,10.11,9.62,13.44l-23,106.48c-1.58.3-3.11.75-4.58,1.31Z"/>
</svg>