<?xml version="1.0" encoding="UTF-8"?>
<svg id="Layer_1" xmlns="http://www.w3.org/2000/svg" xmlns:xlink="http://www.w3.org/1999/xlink" version="1.1" viewBox="0 0 256 256">
  <!-- Generator: Adobe Illustrator 29.5.1, SVG Export Plug-In . SVG Version: 2.1.0 Build 141)  -->
  <defs>
    <style>
      .st0 {
        fill: #00a8d8;
        filter: url(#drop-shadow-1);
        stroke: #fff;
        stroke-miterlimit: 10;
        stroke-width: 12px;
      }
    </style>
    <filter id="drop-shadow-1" x="106.92" y="-4.92" width="96.24" height="96.24">
      <feOffset dx="0" dy="0"/>
      <feGaussianBlur result="blur" stdDeviation="5"/>
      <feFlood flood-color="#000" flood-opacity=".75"/>
      <feComposite in2="blur" operator="in"/>
      <feComposite in="SourceGraphic"/>
    </filter>
  </defs>
  <path class="st0" d="M144.47,230.94c-6.24,0-15.95-1.28-24.9-7.82-17.06-12.47-17.5-33.84-17.64-40.86-.28-13.46,2.02-28.5,4.45-44.42,4.17-27.31,8.85-58.02-1.62-75.63-3.28,4.26-8.5,12.61-15.47,28.67-7.48,17.24-15.68,40.39-24.38,68.81l-34.01-10.41c10.7-34.96,20.4-61.51,29.66-81.18,10.44-22.19,25.35-47.33,48.14-44.87,10.37,1.12,16.95,7.82,21,12.76,11.01,13.43,16.57,30.98,16.98,53.66.32,17.8-2.45,35.98-5.13,53.57-2.19,14.36-4.26,27.93-4.05,38.33.16,7.96,1.7,11.88,3.08,12.89,1.24.9,3.48,1.05,4.6.93,5.62-.6,18.23-12.79,29.82-54.73,8.94-32.34,12.49-65,12.63-66.38l35.37,3.78c-.16,1.49-4.02,36.96-13.72,72.07-5.65,20.44-12.27,37.13-19.68,49.63-11.21,18.9-24.9,29.33-40.68,31-1.12.12-2.63.23-4.44.23Z"/>
</svg>